# xmcd
#
# Track frame offsets:
# 150
# 19854
# 38508
# 62313
# 82736
# 105961
# 124270
# 145943
# 166846
# 190655
# 212246
#
# Disc length: 3096 seconds
#
# Revision: 1
# Processed by: cddbd v1.5.2PL0 Copyright (c) Steve Scherf et al.
# Submitted via: B's Recorder GOLD CDDB Client
#
DISCID=800c160b
DTITLE=Unknown - オーディオCD
DYEAR=1900
DGENRE=
TTITLE0=track1
TTITLE1=track2
TTITLE2=track3
TTITLE3=track4
TTITLE4=track5
TTITLE5=track6
TTITLE6=track7
TTITLE7=track8
TTITLE8=track9
TTITLE9=track10
TTITLE10=track11
EXTD=
EXTT0=
EXTT1=
EXTT2=
EXTT3=
EXTT4=
EXTT5=
EXTT6=
EXTT7=
EXTT8=
EXTT9=
EXTT10=
PLAYORDER=
